<svg width="100" height="100" viewBox="0 0 100 100" fill="none" xmlns="http://www.w3.org/2000/svg">
<path d="M34.4151 43.8887L29.1301 38.3267L36.6078 31.6875L41.8928 37.2495L34.4151 43.8887ZM38.6106 68.7219L38.3285 70.3215L29.2431 71.1164L26.0052 67.7378L29.2984 49.0614L25.949 49.3545L26.231 47.7548L35.3164 46.9599L38.5543 50.3385L35.2611 69.0149L38.6106 68.7219Z" fill="url(#paint0_linear_2_5)"/>
<path d="M72.0918 65.7926L71.8097 67.3923L62.3057 68.2238L59.416 65.2085L62.7796 46.1322L59.8489 46.3886L56.4245 49.4445L53.2512 67.441L55.3446 67.2578L55.0626 68.8575L39.9901 70.1762L40.2722 68.5765L43.6216 68.2834L47.2885 47.4875L43.9391 47.7805L44.2211 46.1809L53.3065 45.386L55.7855 47.9254L59.2099 44.8695L68.7976 44.0307L72.0355 47.4093L68.7424 66.0857L72.0918 65.7926Z" fill="url(#paint1_linear_2_5)"/>
<defs>
<linearGradient id="paint0_linear_2_5" x1="55.2633" y1="24.5428" x2="61.3885" y2="94.5542" gradientUnits="userSpaceOnUse">
<stop stop-color="#88F3FF"/>
<stop offset="1" stop-color="#5675E2"/>
</linearGradient>
<linearGradient id="paint1_linear_2_5" x1="55.2633" y1="24.5428" x2="61.3885" y2="94.5542" gradientUnits="userSpaceOnUse">
<stop stop-color="#88F3FF"/>
<stop offset="1" stop-color="#5675E2"/>
</linearGradient>
</defs>
</svg>
